# xmcd
#
# Track frame offsets:
#	150
#	4438
#	27837
#	50790
#	73175
#	106518
#	141439
#	159303
#	186005
#	207523
#	239448
#
# Disc length: 3469 seconds
#
# Revision: 2416787449
# Processed by: cddbd v1.5.2PL0 Copyright (c) Steve Scherf et al.
# Submitted via: EZCDAudioConverter 8.0.2.1
#
DISCID=9c0d8b0b
DTITLE=Tấn Sơn - st. Trịnh Công Sơn. Phố
DYEAR=2010
DGENRE=Miscellaneous
TTITLE0=Intro
TTITLE1=Trong nỗi đau tình cờ
TTITLE2=Chiều một mình qua phố
TTITLE3=Yêu dấu tan theo
TTITLE4=Nghe những tàn phai
TTITLE5=Tưởng rằng đã quên
TTITLE6=Bên đời hiu quạnh
TTITLE7=Cát bụi tình xa
TTITLE8=Còn có bao ngày
TTITLE9=Rồi như đá ngây ngô
TTITLE10=Hoa vàng mấy độ
EXTD=
EXTT0=
EXTT1=
EXTT2=
EXTT3=
EXTT4=
EXTT5=
EXTT6=
EXTT7=
EXTT8=
EXTT9=
EXTT10=
PLAYORDER=
